<mxfile host="app.diagrams.net" modified="2022-05-24T02:48:28.763Z" agent="5.0 (Windows NT 10.0; Win64; x64) AppleWebKit/537.36 (KHTML, like Gecko) Chrome/101.0.0.0 Safari/537.36" etag="n5BNku--WaeFHy4CwsG_" version="18.1.1" type="github">
  <diagram id="C5RBs43oDa-KdzZeNtuy" name="Page-1">
    <mxGraphModel dx="868" dy="482" grid="1" gridSize="10" guides="1" tooltips="1" connect="1" arrows="1" fold="1" page="1" pageScale="1" pageWidth="827" pageHeight="1169" math="0" shadow="0">
      <root>
        <mxCell id="WIyWlLk6GJQsqaUBKTNV-0" />
        <mxCell id="WIyWlLk6GJQsqaUBKTNV-1" parent="WIyWlLk6GJQsqaUBKTNV-0" />
        <mxCell id="HpINZ7x4jDmkGGu_iMGk-4" value="" style="edgeStyle=orthogonalEdgeStyle;rounded=0;orthogonalLoop=1;jettySize=auto;html=1;" edge="1" parent="WIyWlLk6GJQsqaUBKTNV-1" source="HpINZ7x4jDmkGGu_iMGk-0" target="HpINZ7x4jDmkGGu_iMGk-1">
          <mxGeometry relative="1" as="geometry" />
        </mxCell>
        <mxCell id="HpINZ7x4jDmkGGu_iMGk-0" value="Mulai" style="rounded=1;whiteSpace=wrap;html=1;" vertex="1" parent="WIyWlLk6GJQsqaUBKTNV-1">
          <mxGeometry x="220" y="70" width="120" height="50" as="geometry" />
        </mxCell>
        <mxCell id="HpINZ7x4jDmkGGu_iMGk-5" value="" style="edgeStyle=orthogonalEdgeStyle;rounded=0;orthogonalLoop=1;jettySize=auto;html=1;" edge="1" parent="WIyWlLk6GJQsqaUBKTNV-1" source="HpINZ7x4jDmkGGu_iMGk-1" target="HpINZ7x4jDmkGGu_iMGk-2">
          <mxGeometry relative="1" as="geometry" />
        </mxCell>
        <mxCell id="HpINZ7x4jDmkGGu_iMGk-1" value="Ibu Memberi Perintah &quot;Beli Susu 1 Botol&quot;" style="rounded=0;whiteSpace=wrap;html=1;" vertex="1" parent="WIyWlLk6GJQsqaUBKTNV-1">
          <mxGeometry x="220" y="180" width="120" height="60" as="geometry" />
        </mxCell>
        <mxCell id="HpINZ7x4jDmkGGu_iMGk-6" value="" style="edgeStyle=orthogonalEdgeStyle;rounded=0;orthogonalLoop=1;jettySize=auto;html=1;" edge="1" parent="WIyWlLk6GJQsqaUBKTNV-1" source="HpINZ7x4jDmkGGu_iMGk-2" target="HpINZ7x4jDmkGGu_iMGk-3">
          <mxGeometry relative="1" as="geometry" />
        </mxCell>
        <mxCell id="HpINZ7x4jDmkGGu_iMGk-2" value="Anak Menjawab &quot;Ok&quot;" style="rounded=0;whiteSpace=wrap;html=1;" vertex="1" parent="WIyWlLk6GJQsqaUBKTNV-1">
          <mxGeometry x="220" y="300" width="120" height="60" as="geometry" />
        </mxCell>
        <mxCell id="HpINZ7x4jDmkGGu_iMGk-3" value="Anak Pergi Ke TOKO" style="rounded=0;whiteSpace=wrap;html=1;" vertex="1" parent="WIyWlLk6GJQsqaUBKTNV-1">
          <mxGeometry x="220" y="410" width="120" height="60" as="geometry" />
        </mxCell>
      </root>
    </mxGraphModel>
  </diagram>
</mxfile>
